#!OML:ASF E:/inclinewalkrobotboard/Project1/Captureday1/Session1/subject1.ASF
:FULLY-SPECIFIED
:DEGREES
1
root 0 0 0 35.14923426177157 -43.55334807304784 -3.879405220151094
lowerback -16.22849692427042 2.6785827302268648 -7.50412109210803
upperback -10.142307651441138 3.4752358935126297 -1.5147010194532196
thorax -2.2053002098970804 2.0841770935403736 3.0897611718021873
lowerneck -11.844562138205932 3.7868423296086524 5.138995513788275
upperneck 36.20691591005742 2.49165014310475 3.3099093939740927
head 14.401420311595505 2.077647131893778 0.869784627966624
rclavicle 1.078513500297772E-15 1.073915148932118E-15
rhumerus -25.4311034809691 23.112551830602527 -84.35688161239332
rradius 33.4648979004122
rwrist -19.622150643187155
rhand 20.006006223165144 0.417167437286615
rfingers 7.125020000000022
rthumb 44.49841570757117 -22.353606310382993
lclavicle 6.277680564086235E-15 -8.328616119215791E-16
lhumerus -75.15607994226241 -38.831975044269925 111.74721445834187
lradius 53.0565469564165
lwrist 32.99726745375333
lhand 23.45033431630753 20.991034627989094
lfingers 7.125020000000008
lthumb 47.623093735149624 42.17727270991746
rfemur -40.726091971048064 26.280682731846525 41.183236962847005
rtibia 47.183562977968805
rfoot 15.34039255715382 -24.760394568892103
rtoes 21.80709721619806
lfemur -45.003915793086065 3.501142199258177 -29.284267319638754
ltibia 32.11654862563395
lfoot -59.88179200585367 28.52174433833666
ltoes 30.331743172338456
2
root 0 0 0 35.38484073467074 -42.77433788253222 -3.449780065254087
lowerback -16.515158787872895 2.5509215847811366 -8.00594068236188
upperback -10.327089428748755 3.2800828925848 -1.5086024120444392
thorax -2.2541904560073975 2.0196186349505707 3.406343007063846
lowerneck -11.757917718824872 3.8576684009701934 5.116315661258238
upperneck 36.05656777913587 2.6310921684181894 3.2664169920453023
head 14.323335104537971 2.1304117810248235 0.8688951465760301
rclavicle 1.84921725819558E-15 -2.151918239706167E-16
rhumerus -27.568587230604543 22.417466125506557 -82.15267718027437
rradius 32.209078963917314
rwrist -16.980963129547845
rhand 20.622348332537417 0.05542622932625818
rfingers 7.12502000000002
rthumb 45.0908013349769 -22.627086905767822
lclavicle 6.4878441908854255E-15 -2.8442168557357276E-15
lhumerus -76.21238747227216 -40.408959980609396 110.71036165917332
lradius 53.87208330671307
lwrist 32.91576926051827
lhand 23.65103301421255 21.09475816768064
lfingers 7.125020000000008
lthumb 47.813362164203525 42.184532712631636
rfemur -44.59553728079179 30.190213574967743 43.786479655024394
rtibia 44.188837011985214
rfoot 14.539624510687105 -25.759510129913146
rtoes 24.45271407865531
lfemur -43.75206006983345 3.042162768126807 -28.198405701556887
ltibia 29.64351419102993
lfoot -63.81745109902488 29.24825558608621
ltoes 32.61211432312562
3
root 0 0 0 35.83646046215064 -41.66421691958713 -3.3232988900388145
lowerback -16.826776735436088 2.4337963100471613 -8.304754536512972
upperback -10.523065239786332 3.1119054000365036 -1.4326231913379068
thorax -2.280211245990481 1.9526880097016333 3.675990284297117
lowerneck -11.666869749591186 3.8517025063535115 5.061278053449751
upperneck 36.06634135215621 2.673252569300415 3.1305301740076352
head 14.31520570524884 2.130444508009391 0.8332767032098753
rclavicle 2.4898699669489593E-15 -3.914072856196586E-16
rhumerus -29.734494883468493 20.732159425682163 -78.67136024299099
rradius 30.606349852732688
rwrist -13.488092921422627
rhand 21.0915393798375 -0.3195942219824097
rfingers 7.125020000000019
rthumb 45.543362779150726 -22.963499041728994
lclavicle 6.412937863516616E-15 -3.740384968273217E-15
lhumerus -75.96848465388636 -41.06842518721856 109.49649994822121
lradius 54.31382253610343
lwrist 32.64432480039287
lhand 23.6416553501761 21.17533948124118
lfingers 7.125020000000007
lthumb 47.804501667182535 42.23424206301732
rfemur -45.11500984651562 31.931866891227884 44.58531808668451
rtibia 39.24510140530488
rfoot 12.328121986734097 -26.463826067896413
rtoes 25.51876972390723
lfemur -42.791075103603475 2.9490425182942586 -27.537798083731307
ltibia 28.47648218468025
lfoot -65.34863086842748 29.29306498091283
ltoes 33.5371226133348
4
root 0 0 0 36.22961188377473 -40.63711233008016 -3.4549708881344223
lowerback -17.115143046782297 2.362739809799188 -8.344806313840406
upperback -10.649152414970464 3.0219660032463835 -1.3035599836256924
thorax -2.232034079654645 1.9060098467858866 3.849277141037178
lowerneck -11.565509297897401 3.796315520939709 5.01355257159676
upperneck 36.30356269618291 2.6338308296247446 2.968776240133525
head 14.396188278935579 2.0941830122351655 0.7820524689665017
rclavicle 3.531447408671224E-15 -7.323551814297168E-16
rhumerus -32.080497528913256 18.165339901447723 -73.96995950842125
rradius 28.89264994984487
rwrist -9.769744072685533
rhand 21.484261426197296 -0.6993610888245367
rfingers 7.125020000000018
rthumb 45.924933061631485 -23.337269682176945
lclavicle 6.791603110703705E-15 -4.388864374158965E-15
lhumerus -75.33191098166627 -41.20043752748713 108.41261880334235
lradius 54.570620021958945
lwrist 32.35187806879235
lhand 23.563826859788062 21.310182087246485
lfingers 7.125020000000006
lthumb 47.730923845375784 42.37221940039166
rfemur -43.400879430352276 32.190345460792884 44.11491632527995
rtibia 31.87063997898367
rfoot 6.195838972339946 -26.15975196980085
rtoes 24.90781896557978
lfemur -42.132199495232264 2.997045640501393 -27.11462401050468
ltibia 28.18345417285807
lfoot -65.85157282717162 29.02339003787965
ltoes 33.710336677450144
